<?xml version="1.0" encoding="utf-8"?>
<!-- Generator: Adobe Illustrator 16.0.0, SVG Export Plug-In . SVG Version: 6.00 Build 0)  -->
<!DOCTYPE svg PUBLIC "-//W3C//DTD SVG 1.1//EN" "http://www.w3.org/Graphics/SVG/1.1/DTD/svg11.dtd">
<svg version="1.1" id="Layer_1" xmlns="http://www.w3.org/2000/svg" xmlns:xlink="http://www.w3.org/1999/xlink" x="0px" y="0px"
	 width="185.253px" height="54px" viewBox="0 0 185.253 54" enable-background="new 0 0 185.253 54" xml:space="preserve">
<g id="logo">
	<g>
		<path fill="#FFFFFF" d="M13.076,30.062c1.069,0,1.952-0.089,2.649-0.267c0.696-0.178,1.256-0.421,1.677-0.729
			c0.421-0.308,0.713-0.672,0.875-1.094c0.162-0.42,0.243-0.891,0.243-1.41c0-1.101-0.519-2.017-1.556-2.746
			c-1.037-0.729-2.819-1.515-5.347-2.358c-1.103-0.389-2.204-0.834-3.306-1.337c-1.102-0.502-2.09-1.134-2.965-1.896
			c-0.875-0.761-1.589-1.685-2.139-2.771c-0.552-1.085-0.827-2.406-0.827-3.961c0-1.556,0.292-2.957,0.875-4.205
			c0.584-1.247,1.41-2.309,2.479-3.184s2.365-1.547,3.889-2.018c1.522-0.469,3.24-0.705,5.152-0.705
			c2.269,0,4.229,0.243,5.882,0.729c1.653,0.486,3.015,1.021,4.084,1.604l-2.188,5.979c-0.94-0.486-1.985-0.915-3.136-1.288
			c-1.15-0.372-2.536-0.559-4.156-0.559c-1.815,0-3.119,0.251-3.913,0.753c-0.794,0.503-1.19,1.272-1.19,2.309
			c0,0.616,0.146,1.135,0.438,1.556c0.291,0.421,0.704,0.802,1.239,1.142c0.534,0.34,1.149,0.649,1.847,0.924
			c0.697,0.275,1.466,0.559,2.31,0.851c1.75,0.648,3.272,1.288,4.569,1.92c1.296,0.632,2.373,1.37,3.232,2.212
			c0.858,0.843,1.498,1.831,1.92,2.965c0.421,1.135,0.632,2.512,0.632,4.132c0,3.144-1.102,5.583-3.306,7.316
			c-2.204,1.734-5.525,2.601-9.965,2.601c-1.491,0-2.836-0.09-4.034-0.268c-1.199-0.178-2.261-0.397-3.185-0.656
			c-0.923-0.259-1.718-0.535-2.382-0.826s-1.224-0.567-1.677-0.827l2.139-6.027c1.004,0.551,2.244,1.045,3.719,1.482
			S10.938,30.062,13.076,30.062z"/>
		<path fill="#FFFFFF" d="M47.54,36.527c-5.477,0-9.648-1.523-12.517-4.569c-2.868-3.046-4.302-7.372-4.302-12.979
			c0-2.787,0.438-5.274,1.312-7.461c0.875-2.188,2.073-4.035,3.597-5.542c1.522-1.507,3.338-2.649,5.444-3.427
			s4.391-1.167,6.854-1.167c1.425,0,2.722,0.105,3.889,0.316c1.166,0.211,2.188,0.454,3.062,0.729
			c0.875,0.276,1.604,0.559,2.188,0.851c0.583,0.292,1.004,0.519,1.264,0.681l-2.188,6.125c-1.038-0.551-2.244-1.021-3.622-1.41
			c-1.377-0.389-2.94-0.583-4.69-0.583c-1.167,0-2.309,0.194-3.427,0.583c-1.118,0.389-2.107,1.013-2.966,1.871
			c-0.858,0.859-1.548,1.969-2.065,3.33c-0.519,1.361-0.778,3.014-0.778,4.958c0,1.556,0.171,3.006,0.511,4.351
			c0.341,1.345,0.891,2.503,1.652,3.476s1.758,1.743,2.99,2.309c1.23,0.567,2.722,0.851,4.472,0.851
			c1.102,0,2.091-0.064,2.966-0.194c0.875-0.129,1.652-0.283,2.333-0.462c0.681-0.178,1.279-0.38,1.799-0.607
			c0.518-0.227,0.987-0.438,1.409-0.632L58.818,34c-1.07,0.648-2.577,1.232-4.521,1.75S50.1,36.527,47.54,36.527z"/>
		<path fill="#FFFFFF" d="M73.547,1.771c5.055,0,8.927,0.899,11.617,2.698c2.689,1.799,4.035,4.594,4.035,8.385
			c0,2.366-0.543,4.286-1.629,5.76c-1.086,1.475-2.649,2.633-4.69,3.476c0.681,0.843,1.393,1.807,2.139,2.893
			c0.745,1.086,1.482,2.22,2.212,3.403c0.729,1.183,1.434,2.415,2.114,3.694c0.681,1.28,1.312,2.536,1.896,3.767h-8.477
			c-0.618-1.102-1.245-2.219-1.879-3.354c-0.635-1.134-1.285-2.236-1.952-3.306c-0.666-1.069-1.326-2.082-1.976-3.038
			c-0.651-0.956-1.302-1.823-1.952-2.601h-3.743v12.298h-7.583V2.646c1.652-0.324,3.361-0.551,5.128-0.681
			C70.573,1.836,72.152,1.771,73.547,1.771z M73.984,8.236c-0.552,0-1.046,0.017-1.483,0.048c-0.438,0.033-0.851,0.065-1.239,0.097
			v9.139H73.4c2.852,0,4.894-0.356,6.125-1.069c1.231-0.712,1.848-1.928,1.848-3.646c0-1.653-0.625-2.827-1.872-3.524
			C78.253,8.585,76.414,8.236,73.984,8.236z"/>
		<path fill="#FFFFFF" d="M120.207,35.847c-0.375-1.17-0.777-2.373-1.209-3.606c-0.432-1.233-0.861-2.462-1.288-3.685h-13.157
			c-0.426,1.229-0.853,2.46-1.279,3.695c-0.428,1.235-0.825,2.434-1.194,3.596h-7.874c1.268-3.629,2.47-6.983,3.607-10.062
			c1.138-3.078,2.25-5.979,3.34-8.701c1.089-2.722,2.161-5.306,3.218-7.753c1.057-2.447,2.154-4.837,3.292-7.17h7.188
			c1.106,2.333,2.197,4.724,3.271,7.17c1.074,2.447,2.157,5.031,3.248,7.753s2.206,5.623,3.345,8.701
			c1.14,3.08,2.345,6.434,3.614,10.062H120.207z M111.097,9.792c-0.17,0.489-0.417,1.155-0.743,1.997
			c-0.325,0.842-0.696,1.815-1.112,2.919s-0.882,2.319-1.396,3.646c-0.514,1.327-1.036,2.718-1.567,4.174h9.633
			c-0.516-1.46-1.015-2.856-1.497-4.187c-0.483-1.331-0.943-2.548-1.377-3.653c-0.436-1.104-0.817-2.076-1.146-2.917
			C111.562,10.93,111.298,10.27,111.097,9.792z"/>
		<path fill="#FFFFFF" d="M142.767,1.771c5.022,0,8.879,0.883,11.569,2.649c2.689,1.767,4.034,4.659,4.034,8.677
			c0,4.051-1.361,6.976-4.083,8.774c-2.723,1.799-6.611,2.698-11.667,2.698h-2.382v11.277h-7.583V2.646
			c1.653-0.324,3.403-0.551,5.25-0.681C139.753,1.836,141.373,1.771,142.767,1.771z M143.252,8.236
			c-0.551,0-1.094,0.017-1.628,0.048c-0.535,0.033-0.996,0.065-1.386,0.097v9.722h2.382c2.625,0,4.602-0.356,5.931-1.069
			c1.328-0.712,1.993-2.042,1.993-3.986c0-0.939-0.17-1.717-0.511-2.333c-0.34-0.615-0.826-1.11-1.458-1.482
			s-1.402-0.632-2.309-0.778C145.358,8.309,144.354,8.236,143.252,8.236z"/>
	</g>
	<g>
		<path fill="#F85D5D" d="M157.813,43.778c-0.583-0.166-1.179-0.422-1.789-0.768s-1.129-0.758-1.557-1.234
			c-0.427-0.478-0.713-1.007-0.861-1.589c-0.147-0.582-0.046-1.189,0.309-1.823c0.129-0.255,0.312-0.523,0.55-0.807
			c0.235-0.283,0.391-0.581,0.463-0.896c0-0.077-0.066-0.173-0.203-0.287c-0.137-0.113-0.286-0.247-0.446-0.402
			c-0.162-0.155-0.304-0.329-0.425-0.521c-0.122-0.193-0.163-0.401-0.124-0.623c0.031-0.237,0.138-0.416,0.316-0.536
			c0.18-0.119,0.394-0.208,0.643-0.264c0.247-0.056,0.509-0.102,0.783-0.136c0.272-0.035,0.53-0.088,0.771-0.16
			c0.241-0.071,0.438-0.175,0.59-0.312c0.152-0.136,0.237-0.338,0.254-0.606c-0.172-0.439-0.318-0.927-0.438-1.459
			s-0.17-1.069-0.148-1.611s0.133-1.062,0.334-1.56c0.201-0.497,0.543-0.93,1.025-1.296c0.122-0.087,0.327-0.188,0.617-0.303
			c0.287-0.114,0.609-0.22,0.965-0.317c0.354-0.097,0.721-0.174,1.101-0.229c0.378-0.056,0.721-0.069,1.024-0.041
			c0.303,0.028,0.549,0.111,0.735,0.249c0.188,0.138,0.271,0.348,0.251,0.628c-0.021,0.241-0.128,0.406-0.321,0.494
			c-0.196,0.088-0.439,0.149-0.733,0.184c-0.292,0.034-0.614,0.068-0.967,0.102c-0.352,0.032-0.694,0.124-1.027,0.274
			c-0.335,0.15-0.637,0.378-0.907,0.682c-0.271,0.303-0.47,0.746-0.596,1.329c-0.071,0.314-0.054,0.625,0.054,0.931
			c0.107,0.307,0.232,0.611,0.374,0.917c0.141,0.304,0.257,0.606,0.348,0.907c0.091,0.299,0.082,0.601-0.024,0.902
			c-0.144,0.407-0.314,0.707-0.513,0.898s-0.414,0.339-0.645,0.44c-0.232,0.101-0.482,0.189-0.751,0.265
			c-0.27,0.075-0.541,0.188-0.816,0.34c-0.062,0.03-0.039,0.094,0.07,0.191s0.242,0.21,0.4,0.337
			c0.158,0.128,0.307,0.259,0.45,0.395c0.141,0.135,0.216,0.249,0.222,0.343c-0.1,0.317-0.265,0.623-0.497,0.914
			c-0.234,0.29-0.46,0.579-0.679,0.868c-0.22,0.289-0.398,0.582-0.537,0.88c-0.138,0.299-0.159,0.608-0.062,0.93
			c0.095,0.321,0.343,0.666,0.743,1.036c0.398,0.369,1.025,0.77,1.881,1.202c0.131,0.072,0.215,0.171,0.249,0.294
			c0.035,0.123,0.041,0.246,0.018,0.369c-0.023,0.122-0.078,0.23-0.164,0.325C158.038,43.717,157.935,43.769,157.813,43.778z"/>
		<path fill="#F85D5D" d="M161.897,37.862c-0.034-0.052-0.141-0.119-0.32-0.201c-0.181-0.084-0.387-0.179-0.615-0.286
			c-0.23-0.107-0.458-0.229-0.684-0.368c-0.227-0.139-0.407-0.287-0.541-0.445s-0.191-0.326-0.176-0.504
			c0.018-0.176,0.158-0.362,0.423-0.557c0.13-0.111,0.278-0.18,0.444-0.206s0.336-0.028,0.512-0.006s0.348,0.063,0.517,0.123
			c0.168,0.06,0.324,0.127,0.467,0.203c0.27-1.396,0.636-2.519,1.1-3.368c0.463-0.85,0.971-1.488,1.526-1.914s1.133-0.67,1.73-0.733
			c0.598-0.064,1.153,0.001,1.666,0.194c0.514,0.194,0.965,0.483,1.353,0.869c0.387,0.385,0.657,0.807,0.809,1.266
			c0.118,0.186,0.125,0.371,0.021,0.556c-0.104,0.186-0.256,0.336-0.451,0.449c-0.198,0.113-0.404,0.168-0.618,0.165
			c-0.215-0.004-0.368-0.113-0.463-0.33c-0.284-0.715-0.61-1.183-0.977-1.403s-0.739-0.27-1.114-0.147
			c-0.377,0.122-0.746,0.378-1.104,0.769c-0.36,0.39-0.674,0.832-0.939,1.326c-0.265,0.495-0.466,1.01-0.602,1.543
			c-0.136,0.534-0.178,1.007-0.127,1.417l2.728,0.941c0.146,0.183,0.234,0.387,0.266,0.613s0.021,0.438-0.028,0.637
			c-0.05,0.199-0.128,0.364-0.234,0.497c-0.104,0.132-0.224,0.202-0.357,0.207l-2.434-0.72c-0.014,0.112-0.022,0.322-0.024,0.628
			c-0.003,0.307-0.014,0.652-0.032,1.038s-0.056,0.788-0.111,1.206c-0.056,0.419-0.146,0.803-0.269,1.151
			c-0.176,0.2-0.375,0.315-0.603,0.347c-0.227,0.031-0.439,0.013-0.637-0.058c-0.198-0.069-0.368-0.188-0.512-0.356
			c-0.144-0.169-0.215-0.363-0.215-0.586L161.897,37.862z"/>
		<path fill="#F85D5D" d="M165.146,49.187c-0.082-0.213-0.062-0.435,0.059-0.666c0.12-0.232,0.28-0.428,0.48-0.586
			c0.2-0.159,0.407-0.249,0.625-0.271c0.216-0.022,0.368,0.067,0.454,0.268c0.191,0.943,0.432,1.663,0.721,2.157
			c0.291,0.494,0.611,0.81,0.961,0.946c0.351,0.137,0.715,0.124,1.093-0.037c0.376-0.161,0.748-0.426,1.112-0.794
			c0.366-0.369,0.717-0.811,1.057-1.325c0.338-0.515,0.638-1.054,0.901-1.614s0.474-1.124,0.634-1.688s0.253-1.071,0.28-1.52
			c-0.319,0.201-0.677,0.39-1.071,0.563c-0.395,0.175-0.804,0.296-1.226,0.362c-0.423,0.067-0.851,0.058-1.283-0.03
			c-0.435-0.087-0.841-0.296-1.222-0.626c-0.329-0.364-0.554-0.8-0.677-1.308c-0.122-0.508-0.175-1.055-0.157-1.644
			c0.019-0.589,0.093-1.196,0.222-1.824c0.13-0.628,0.285-1.237,0.467-1.827c0.183-0.59,0.37-1.145,0.566-1.663
			c0.196-0.521,0.375-0.973,0.538-1.36c0.182-0.145,0.397-0.236,0.646-0.272c0.249-0.037,0.476-0.016,0.683,0.063
			c0.208,0.08,0.37,0.212,0.488,0.397s0.146,0.424,0.082,0.716c-0.094,0.229-0.222,0.543-0.383,0.944
			c-0.161,0.4-0.321,0.841-0.484,1.319c-0.162,0.479-0.311,0.976-0.446,1.49s-0.216,1.003-0.241,1.465
			c-0.025,0.461,0.01,0.88,0.108,1.254c0.096,0.374,0.293,0.659,0.59,0.855c0.56,0.118,1.06,0.082,1.501-0.109
			c0.439-0.19,0.825-0.48,1.158-0.867c0.331-0.386,0.618-0.838,0.859-1.354c0.24-0.516,0.444-1.039,0.611-1.569
			c0.167-0.529,0.299-1.032,0.394-1.508c0.097-0.477,0.172-0.868,0.228-1.176c0.147-0.157,0.335-0.225,0.562-0.203
			c0.229,0.021,0.441,0.093,0.64,0.215c0.199,0.123,0.365,0.286,0.495,0.488c0.131,0.203,0.174,0.408,0.128,0.613
			c-0.492,2.992-1.093,5.513-1.803,7.563c-0.709,2.052-1.46,3.693-2.254,4.924c-0.793,1.23-1.603,2.09-2.429,2.577
			c-0.824,0.487-1.604,0.664-2.334,0.531c-0.73-0.134-1.389-0.539-1.974-1.216C165.92,51.165,165.467,50.279,165.146,49.187z"/>
		<path fill="#F85D5D" d="M173.632,49.43c-0.089-0.084-0.137-0.189-0.144-0.315c-0.008-0.127,0.018-0.245,0.075-0.356
			c0.059-0.11,0.14-0.202,0.245-0.276c0.104-0.074,0.23-0.099,0.379-0.072c0.924,0.195,1.661,0.274,2.21,0.239
			s0.961-0.148,1.238-0.339c0.275-0.19,0.453-0.445,0.532-0.764c0.08-0.317,0.125-0.659,0.135-1.021
			c0.011-0.362,0.016-0.73,0.017-1.103c-0.001-0.372,0.061-0.714,0.184-1.023c0.062-0.069,0.192-0.112,0.389-0.128
			c0.194-0.017,0.395-0.024,0.597-0.025c0.203,0,0.378-0.005,0.524-0.011c0.146-0.008,0.203-0.043,0.174-0.105
			c-0.119-0.291-0.261-0.55-0.422-0.777c-0.163-0.227-0.302-0.452-0.419-0.677c-0.118-0.225-0.194-0.473-0.228-0.747
			c-0.035-0.273,0.02-0.613,0.163-1.021c0.106-0.303,0.289-0.543,0.548-0.719c0.258-0.178,0.538-0.341,0.84-0.489
			c0.3-0.149,0.589-0.309,0.864-0.48c0.276-0.171,0.485-0.4,0.627-0.691c0.255-0.537,0.374-1.009,0.36-1.412
			c-0.015-0.404-0.105-0.769-0.271-1.096c-0.166-0.326-0.376-0.613-0.629-0.859s-0.483-0.475-0.69-0.685
			c-0.207-0.211-0.359-0.41-0.454-0.602c-0.097-0.19-0.078-0.387,0.06-0.587c0.159-0.231,0.355-0.342,0.587-0.332
			c0.232,0.01,0.476,0.099,0.73,0.267c0.254,0.168,0.512,0.393,0.771,0.675c0.262,0.281,0.499,0.57,0.713,0.868
			c0.217,0.299,0.397,0.581,0.545,0.85c0.148,0.268,0.248,0.476,0.301,0.625c0.145,0.588,0.141,1.139-0.015,1.652
			c-0.154,0.515-0.394,0.989-0.717,1.425c-0.323,0.435-0.698,0.822-1.126,1.162c-0.427,0.34-0.846,0.627-1.254,0.862
			c-0.168,0.216-0.232,0.426-0.193,0.629s0.131,0.409,0.273,0.616s0.31,0.41,0.502,0.608s0.366,0.396,0.526,0.597
			c0.157,0.199,0.269,0.402,0.333,0.608c0.066,0.206,0.035,0.411-0.089,0.615c-0.108,0.197-0.271,0.333-0.486,0.407
			s-0.435,0.121-0.658,0.142c-0.223,0.019-0.426,0.029-0.608,0.03c-0.184,0.001-0.293,0.033-0.33,0.1
			c-0.141,0.29-0.208,0.619-0.201,0.988c0.008,0.368-0.019,0.692-0.078,0.973c-0.121,0.716-0.422,1.254-0.902,1.614
			c-0.479,0.36-1.035,0.593-1.667,0.697s-1.294,0.1-1.985-0.014C174.814,49.84,174.188,49.665,173.632,49.43z"/>
	</g>
</g>
<g>
</g>
<g>
</g>
<g>
</g>
<g>
</g>
<g>
</g>
<g>
</g>
</svg>
